<?xml version="1.0" encoding="UTF-8" standalone="no"?>
<!-- Created with Inkscape (http://www.inkscape.org/) -->

<svg
   xmlns:dc="http://purl.org/dc/elements/1.1/"
   xmlns:cc="http://creativecommons.org/ns#"
   xmlns:rdf="http://www.w3.org/1999/02/22-rdf-syntax-ns#"
   xmlns:svg="http://www.w3.org/2000/svg"
   xmlns="http://www.w3.org/2000/svg"
   xmlns:sodipodi="http://sodipodi.sourceforge.net/DTD/sodipodi-0.dtd"
   xmlns:inkscape="http://www.inkscape.org/namespaces/inkscape"
   width="2087.585"
   height="300.00003"
   viewBox="0 0 552.34017 79.37501"
   version="1.1"
   id="svg8"
   sodipodi:docname="logo-light.svg"
   inkscape:version="0.92.4 (5da689c313, 2019-01-14)">
  <defs
     id="defs2" />
  <sodipodi:namedview
     id="base"
     pagecolor="#1f1f1f"
     bordercolor="#666666"
     borderopacity="1.0"
     inkscape:pageopacity="0"
     inkscape:pageshadow="2"
     inkscape:zoom="0.35"
     inkscape:cx="1018.0782"
     inkscape:cy="352.85716"
     inkscape:document-units="px"
     inkscape:current-layer="layer1"
     showgrid="false"
     showborder="true"
     units="px"
     inkscape:window-width="1920"
     inkscape:window-height="1013"
     inkscape:window-x="-9"
     inkscape:window-y="-9"
     inkscape:window-maximized="1" />
  <metadata
     id="metadata5">
    <rdf:RDF>
      <cc:Work
         rdf:about="">
        <dc:format>image/svg+xml</dc:format>
        <dc:type
           rdf:resource="http://purl.org/dc/dcmitype/StillImage" />
        <dc:title></dc:title>
      </cc:Work>
    </rdf:RDF>
  </metadata>
  <g
     inkscape:label="Layer 1"
     inkscape:groupmode="layer"
     id="layer1"
     transform="translate(161.26533,-162.81844)">
    <g
       id="g5529">
      <path
         inkscape:connector-curvature="0"
         id="path4381"
         d="m -161.24583,202.52664 v -39.68732 l 22.19643,0.0654 c 12.20805,0.0393 22.92057,0.10471 23.80582,0.13743 5.60048,0.22641 10.85715,2.61256 15.40106,6.98907 l 1.4577,1.40392 0.53136,-0.58109 c 1.03,-1.12685 3.31812,-3.06932 4.73473,-4.01962 2.82065,-1.89195 5.73031,-3.04707 9.21516,-3.6584 1.60376,-0.28138 2.40303,-0.34159 4.51472,-0.34159 5.64354,0.002 10.03079,1.35261 14.32865,4.41225 0.60334,0.42928 1.93227,1.58361 2.95297,2.5644 l 1.8557,1.7832 1.4793,-1.44685 c 2.85626,-2.7933 5.22408,-4.38829 8.48134,-5.71329 4.50687,-1.83319 10.84209,-2.13303 16.13148,-0.76301 8.97631,2.32437 16.79148,11.19402 18.82976,21.3706 0.69102,3.45135 0.67139,2.62238 0.72636,30.50881 0.0393,22.48266 0.0262,26.35373 -0.14265,26.49154 -0.14397,0.11779 -2.08409,0.15182 -7.45056,0.13088 l -7.25619,-0.0393 -0.0785,-26.17862 -0.0785,-26.17862 -0.30494,-1.13994 c -0.60989,-2.27437 -1.67941,-4.12536 -3.38945,-5.86341 -2.27673,-2.31403 -4.38607,-3.17049 -7.82027,-3.17533 -2.5309,-0.004 -4.12184,0.4031 -5.85857,1.49631 -2.44687,1.54055 -4.3722,4.12105 -5.29056,7.09064 l -0.32065,1.03786 -0.0393,26.33645 c -0.0262,21.88849 -0.0654,26.36277 -0.2238,26.49155 -0.1335,0.1047 -2.26548,0.14527 -7.5122,0.11779 l -7.32543,-0.0393 -0.0785,-26.17862 -0.0785,-26.17862 -0.30494,-1.13994 c -0.60989,-2.27438 -1.67941,-4.12537 -3.38945,-5.86341 -2.40892,-2.44831 -4.6329,-3.28042 -8.40058,-3.14353 -3.12246,0.11779 -4.93052,0.8808 -7.0981,3.01305 -1.82115,1.79144 -2.79579,3.45645 -3.48355,5.95162 -0.25521,0.9266 -0.29578,1.56751 -0.36776,5.75255 l -0.0785,4.70947 h -7.41037 -7.41037 l -0.0785,-4.64023 c -0.0916,-5.06991 -0.15443,-5.55847 -1.06665,-7.72945 -1.23285,-2.93583 -3.9509,-5.55925 -6.73714,-6.50405 l -1.11899,-0.37954 -14.46398,-0.0393 c -11.61518,-0.0262 -14.48609,-0.004 -14.57613,0.13873 -0.0654,0.0916 -0.11779,1.87455 -0.11779,3.94973 l -0.002,3.77292 -5.71368,0.0393 -5.71356,0.0393 v 2.70104 2.7009 l 5.67901,0.0654 5.67887,0.0654 v 9.2802 9.28021 l -5.67887,0.0654 -5.67901,0.0654 v 2.7009 2.70104 l 5.71356,0.0393 5.71368,0.0393 0.002,3.84215 c 10e-4,2.11327 0.0524,3.92172 0.11779,4.01896 0.0916,0.14266 2.96095,0.16883 14.57613,0.13873 l 14.46398,-0.0393 1.10852,-0.37693 c 1.61934,-0.55099 2.75025,-1.27343 4.08205,-2.60418 1.96393,-1.96315 3.2087,-4.47232 3.59348,-7.24377 0.0785,-0.59549 0.15051,-2.91096 0.15051,-5.14476 0,-3.57542 0.0262,-4.07118 0.21856,-4.14526 0.34552,-0.13219 14.3721,-0.0916 14.58412,0.0393 0.15836,0.1047 0.17799,0.98681 0.11779,5.2267 -0.0785,5.69156 -0.21856,7.08121 -0.9999,10.21192 -1.95098,7.82001 -7.35553,14.8511 -14.0576,18.28858 -2.07387,1.06403 -3.62083,1.62353 -5.87113,2.12478 l -1.67771,0.37431 -23.85857,0.0393 -23.85856,0.0393 z"
         style="font-style:normal;font-variant:normal;font-weight:bold;font-stretch:normal;font-size:21.24913597px;line-height:1.25;font-family:Poppins;-inkscape-font-specification:'Poppins, Bold';font-variant-ligatures:normal;font-variant-caps:normal;font-variant-numeric:normal;font-feature-settings:normal;text-align:start;letter-spacing:0px;word-spacing:0px;writing-mode:lr-tb;text-anchor:start;fill:#3480e3;fill-opacity:1;stroke:none;stroke-width:0.13851117" />
      <path
         style="font-style:normal;font-variant:normal;font-weight:bold;font-stretch:normal;font-size:21.24913597px;line-height:1.25;font-family:Poppins;-inkscape-font-specification:'Poppins, Bold';font-variant-ligatures:normal;font-variant-caps:normal;font-variant-numeric:normal;font-feature-settings:normal;text-align:start;letter-spacing:0px;word-spacing:0px;writing-mode:lr-tb;text-anchor:start;fill:#0d6195;fill-opacity:1;stroke:none;stroke-width:0.13851117"
         d="m -161.26533,202.4362 v -39.61769 h 7.45186 c 4.60018,0 7.50303,0.0524 7.58548,0.13349 0.0785,0.0785 6.17581,0.1492 16.33747,0.17538 l 16.20372,0.0393 1.51948,0.32065 c 3.64898,0.76955 6.56871,2.09272 9.58934,4.34445 1.31256,0.97896 3.91976,3.44258 3.91976,3.7046 0,0.0785 -0.35729,0.62951 -0.79442,1.21977 -2.90782,3.92669 -5.11401,9.35965 -5.9193,14.57692 -0.39655,2.57055 -0.37038,2.45669 -0.4934,2.14703 -0.0654,-0.15312 -0.30102,-0.90043 -0.53398,-1.66213 -1.12161,-3.66285 -3.99933,-6.70338 -7.42686,-7.84829 l -0.9698,-0.32457 -14.45573,-0.0393 c -10.73451,-0.0262 -14.5052,0.003 -14.64759,0.11779 -0.15443,0.13088 -0.19239,0.88997 -0.19239,3.9513 v 3.79216 h -5.58202 c -4.15678,0 -5.62443,0.0393 -5.74811,0.16621 -0.17537,0.17538 -0.24866,4.99884 -0.0785,5.43217 0.0785,0.19501 0.71066,0.21856 5.74823,0.21856 h 5.66409 v 9.21098 9.21097 h -5.66409 c -5.03718,0 -5.6735,0.0262 -5.74823,0.21857 -0.16622,0.4332 -0.0916,5.25666 0.0785,5.43217 0.11779,0.11779 1.59133,0.16621 5.74811,0.16621 h 5.58202 v 3.86139 c 0,3.12049 0.0393,3.89188 0.19239,4.02053 0.14266,0.11779 3.91308,0.1492 14.64759,0.11779 l 14.45573,-0.0393 1.10853,-0.37693 c 1.47537,-0.50256 2.66844,-1.22631 3.87657,-2.35133 1.5361,-1.43061 2.74854,-3.31341 3.37164,-5.23572 0.57717,-1.78241 0.6112,-2.11563 0.69889,-6.85624 l 0.0916,-4.70947 h 7.27177 7.27191 l -0.006,4.91717 c -0.007,5.58281 -0.16359,7.27387 -0.96979,10.47603 -1.30223,5.17067 -3.93403,9.74704 -7.84515,13.64154 -3.43931,3.42491 -7.31404,5.5654 -11.93923,6.5958 l -1.67771,0.37299 -23.85856,0.0393 -23.85857,0.0393 z"
         id="path4329"
         inkscape:connector-curvature="0" />
      <path
         d="m 22.78975,164.1343 q 9.9728,0 16.62134,6.99482 6.7178,6.99481 6.7178,17.24464 0,10.24983 -6.7178,17.24465 -6.64854,6.99482 -16.62134,6.99482 H 3.53669 V 164.1343 Z m 0,39.33719 q 6.30226,0 10.24983,-4.15534 3.94757,-4.22459 3.94757,-10.94239 0,-6.71779 -3.94757,-10.87313 -3.94757,-4.22459 -10.24983,-4.22459 h -9.69579 v 30.19545 z"
         style="font-style:normal;font-variant:normal;font-weight:bold;font-stretch:normal;font-size:69.2556076px;line-height:1.25;font-family:Gilroy-Bold;-inkscape-font-specification:'Gilroy-Bold Bold';font-variant-ligatures:normal;font-variant-caps:normal;font-variant-numeric:normal;font-feature-settings:normal;text-align:start;letter-spacing:0px;word-spacing:0px;writing-mode:lr-tb;text-anchor:start;fill:#3480e3;fill-opacity:1;stroke:none;stroke-width:1.29045486"
         id="path4600"
         inkscape:connector-curvature="0" />
      <path
         d="m 75.752973,177.98542 h 8.933974 v 34.62781 h -8.933974 v -3.87832 q -3.255013,4.84789 -10.319085,4.84789 -5.678958,0 -9.418758,-3.80905 -3.67055,-3.80906 -3.67055,-10.52686 v -21.26147 h 8.93397 v 20.15338 q 0,3.46278 1.8699,5.33269 1.869904,1.80064 4.986407,1.80064 3.46278,0 5.540448,-2.14692 2.077668,-2.14693 2.077668,-6.44077 z"
         style="font-style:normal;font-variant:normal;font-weight:bold;font-stretch:normal;font-size:69.2556076px;line-height:1.25;font-family:Gilroy-Bold;-inkscape-font-specification:'Gilroy-Bold Bold';font-variant-ligatures:normal;font-variant-caps:normal;font-variant-numeric:normal;font-feature-settings:normal;text-align:start;letter-spacing:0px;word-spacing:0px;writing-mode:lr-tb;text-anchor:start;fill:#3480e3;fill-opacity:1;stroke:none;stroke-width:1.29045486"
         id="path4602"
         inkscape:connector-curvature="0" />
      <path
         d="m 112.05481,177.01584 q 5.67896,0 9.34951,3.80906 3.73981,3.80906 3.73981,10.52685 v 21.26148 h -8.93398 v -20.15339 q 0,-3.46278 -1.8699,-5.26342 -1.8699,-1.8699 -4.9864,-1.8699 -3.46278,0 -5.54045,2.14692 -2.07767,2.14692 -2.07767,6.44077 v 18.69902 h -8.933974 v -34.62781 h 8.933974 v 3.87832 q 3.25501,-4.8479 10.31908,-4.8479 z"
         style="font-style:normal;font-variant:normal;font-weight:bold;font-stretch:normal;font-size:69.2556076px;line-height:1.25;font-family:Gilroy-Bold;-inkscape-font-specification:'Gilroy-Bold Bold';font-variant-ligatures:normal;font-variant-caps:normal;font-variant-numeric:normal;font-feature-settings:normal;text-align:start;letter-spacing:0px;word-spacing:0px;writing-mode:lr-tb;text-anchor:start;fill:#3480e3;fill-opacity:1;stroke:none;stroke-width:1.29045486"
         id="path4604"
         inkscape:connector-curvature="0" />
      <path
         d="m 137.13725,173.83009 q -2.21618,0 -3.87831,-1.59288 -1.59288,-1.66214 -1.59288,-3.87832 0,-2.21618 1.59288,-3.87831 1.66213,-1.66214 3.87831,-1.66214 2.28544,0 3.87832,1.66214 1.66213,1.66213 1.66213,3.87831 0,2.21618 -1.66213,3.87832 -1.59288,1.59288 -3.87832,1.59288 z m -4.43236,38.78314 v -34.62781 h 8.93398 v 34.62781 z"
         style="font-style:normal;font-variant:normal;font-weight:bold;font-stretch:normal;font-size:69.2556076px;line-height:1.25;font-family:Gilroy-Bold;-inkscape-font-specification:'Gilroy-Bold Bold';font-variant-ligatures:normal;font-variant-caps:normal;font-variant-numeric:normal;font-feature-settings:normal;text-align:start;letter-spacing:0px;word-spacing:0px;writing-mode:lr-tb;text-anchor:start;fill:#3480e3;fill-opacity:1;stroke:none;stroke-width:1.29045486"
         id="path4606"
         inkscape:connector-curvature="0" />
      <path
         d="m 176.06539,177.98542 h 8.93397 v 34.62781 h -8.93397 v -4.08608 q -4.01683,5.05565 -11.28866,5.05565 -6.92556,0 -11.91197,-5.26342 -4.91715,-5.33268 -4.91715,-13.02006 0,-7.68737 4.91715,-12.95079 4.98641,-5.33269 11.91197,-5.33269 7.27183,0 11.28866,5.05566 z m -16.48283,24.37798 q 2.70096,2.70096 6.8563,2.70096 4.15534,0 6.85631,-2.70096 2.77022,-2.77023 2.77022,-7.06408 0,-4.29384 -2.77022,-6.99481 -2.70097,-2.77023 -6.85631,-2.77023 -4.15534,0 -6.8563,2.77023 -2.70097,2.70097 -2.70097,6.99481 0,4.29385 2.70097,7.06408 z"
         style="font-style:normal;font-variant:normal;font-weight:bold;font-stretch:normal;font-size:69.2556076px;line-height:1.25;font-family:Gilroy-Bold;-inkscape-font-specification:'Gilroy-Bold Bold';font-variant-ligatures:normal;font-variant-caps:normal;font-variant-numeric:normal;font-feature-settings:normal;text-align:start;letter-spacing:0px;word-spacing:0px;writing-mode:lr-tb;text-anchor:start;fill:#3480e3;fill-opacity:1;stroke:none;stroke-width:1.29045486"
         id="path4608"
         inkscape:connector-curvature="0" />
      <path
         d="m 231.46664,177.01584 q 5.95598,0 9.48802,3.87832 3.60129,3.87831 3.60129,10.38834 v 21.33073 h -8.93398 V 191.9058 q 0,-3.1165 -1.52362,-4.84789 -1.52362,-1.73139 -4.29385,-1.73139 -3.04724,0 -4.77863,2.00841 -1.66214,2.00841 -1.66214,5.81747 v 19.46083 h -8.93397 V 191.9058 q 0,-3.1165 -1.52362,-4.84789 -1.52363,-1.73139 -4.29385,-1.73139 -2.97799,0 -4.77864,2.00841 -1.73139,2.00841 -1.73139,5.81747 v 19.46083 h -8.93397 v -34.62781 h 8.93397 v 3.67055 q 3.1165,-4.64013 9.62653,-4.64013 6.37152,0 9.41876,4.98641 3.46278,-4.98641 10.31909,-4.98641 z"
         style="font-style:normal;font-variant:normal;font-weight:bold;font-stretch:normal;font-size:69.2556076px;line-height:1.25;font-family:Gilroy-Bold;-inkscape-font-specification:'Gilroy-Bold Bold';font-variant-ligatures:normal;font-variant-caps:normal;font-variant-numeric:normal;font-feature-settings:normal;text-align:start;letter-spacing:0px;word-spacing:0px;writing-mode:lr-tb;text-anchor:start;fill:#3480e3;fill-opacity:1;stroke:none;stroke-width:1.29045486"
         id="path4610"
         inkscape:connector-curvature="0" />
      <path
         d="m 274.99812,177.98542 h 8.93397 v 34.62781 h -8.93397 v -3.87832 q -3.25502,4.84789 -10.31909,4.84789 -5.67896,0 -9.41876,-3.80905 -3.67055,-3.80906 -3.67055,-10.52686 v -21.26147 h 8.93397 v 20.15338 q 0,3.46278 1.86991,5.33269 1.8699,1.80064 4.9864,1.80064 3.46278,0 5.54045,-2.14692 2.07767,-2.14693 2.07767,-6.44077 z"
         style="font-style:normal;font-variant:normal;font-weight:bold;font-stretch:normal;font-size:69.2556076px;line-height:1.25;font-family:Gilroy-Bold;-inkscape-font-specification:'Gilroy-Bold Bold';font-variant-ligatures:normal;font-variant-caps:normal;font-variant-numeric:normal;font-feature-settings:normal;text-align:start;letter-spacing:0px;word-spacing:0px;writing-mode:lr-tb;text-anchor:start;fill:#3480e3;fill-opacity:1;stroke:none;stroke-width:1.29045486"
         id="path4612"
         inkscape:connector-curvature="0" />
      <path
         d="m 300.98088,183.9414 q 1.2466,-3.32426 4.08608,-4.9864 2.90873,-1.66213 6.44077,-1.66213 v 9.9728 q -4.08608,-0.48479 -7.34109,1.66214 -3.18576,2.14692 -3.18576,7.13333 v 16.55209 h -8.93398 v -34.62781 h 8.93398 z"
         style="font-style:normal;font-variant:normal;font-weight:bold;font-stretch:normal;font-size:69.2556076px;line-height:1.25;font-family:Gilroy-Bold;-inkscape-font-specification:'Gilroy-Bold Bold';font-variant-ligatures:normal;font-variant-caps:normal;font-variant-numeric:normal;font-feature-settings:normal;text-align:start;letter-spacing:0px;word-spacing:0px;writing-mode:lr-tb;text-anchor:start;fill:#3480e3;fill-opacity:1;stroke:none;stroke-width:1.29045486"
         id="path4614"
         inkscape:connector-curvature="0" />
      <path
         d="m 341.62957,177.98542 h 8.93397 v 34.62781 h -8.93397 v -4.08608 q -4.01683,5.05565 -11.28867,5.05565 -6.92556,0 -11.91196,-5.26342 -4.91715,-5.33268 -4.91715,-13.02006 0,-7.68737 4.91715,-12.95079 4.9864,-5.33269 11.91196,-5.33269 7.27184,0 11.28867,5.05566 z m -16.48284,24.37798 q 2.70097,2.70096 6.85631,2.70096 4.15534,0 6.8563,-2.70096 2.77023,-2.77023 2.77023,-7.06408 0,-4.29384 -2.77023,-6.99481 -2.70096,-2.77023 -6.8563,-2.77023 -4.15534,0 -6.85631,2.77023 -2.70096,2.70097 -2.70096,6.99481 0,4.29385 2.70096,7.06408 z"
         style="font-style:normal;font-variant:normal;font-weight:bold;font-stretch:normal;font-size:69.2556076px;line-height:1.25;font-family:Gilroy-Bold;-inkscape-font-specification:'Gilroy-Bold Bold';font-variant-ligatures:normal;font-variant-caps:normal;font-variant-numeric:normal;font-feature-settings:normal;text-align:start;letter-spacing:0px;word-spacing:0px;writing-mode:lr-tb;text-anchor:start;fill:#3480e3;fill-opacity:1;stroke:none;stroke-width:1.29045486"
         id="path4616"
         inkscape:connector-curvature="0" />
      <path
         d="m 377.98554,177.01584 q 5.67896,0 9.34951,3.80906 3.7398,3.80906 3.7398,10.52685 v 21.26148 h -8.93397 v -20.15339 q 0,-3.46278 -1.8699,-5.26342 -1.86991,-1.8699 -4.98641,-1.8699 -3.46278,0 -5.54045,2.14692 -2.07767,2.14692 -2.07767,6.44077 v 18.69902 h -8.93397 V 164.1343 h 8.93397 v 17.72944 q 3.25502,-4.8479 10.31909,-4.8479 z"
         style="font-style:normal;font-variant:normal;font-weight:bold;font-stretch:normal;font-size:69.2556076px;line-height:1.25;font-family:Gilroy-Bold;-inkscape-font-specification:'Gilroy-Bold Bold';font-variant-ligatures:normal;font-variant-caps:normal;font-variant-numeric:normal;font-feature-settings:normal;text-align:start;letter-spacing:0px;word-spacing:0px;writing-mode:lr-tb;text-anchor:start;fill:#3480e3;fill-opacity:1;stroke:none;stroke-width:1.29045486"
         id="path4618"
         inkscape:connector-curvature="0" />
      <path
         inkscape:connector-curvature="0"
         id="path4621"
         style="font-style:normal;font-variant:normal;font-weight:normal;font-stretch:normal;font-size:21.24913597px;line-height:1.25;font-family:Gilroy-SemiBold;-inkscape-font-specification:Gilroy-SemiBold;font-variant-ligatures:normal;font-variant-caps:normal;font-variant-numeric:normal;font-feature-settings:normal;text-align:start;letter-spacing:0px;word-spacing:0px;writing-mode:lr-tb;text-anchor:start;fill:#df9d0b;fill-opacity:1;stroke:none;stroke-width:0.37291417"
         d="m 14.60755,241.91721 -1.04121,-2.99613 H 7.2341 l -1.04121,2.99613 H 3.53675 l 5.39728,-14.87439 h 2.93238 l 5.37603,14.87439 z m -6.56598,-5.29103 h 4.7173 l -2.35865,-6.71473 z" />
      <path
         inkscape:connector-curvature="0"
         id="path4623"
         style="font-style:normal;font-variant:normal;font-weight:normal;font-stretch:normal;font-size:21.24913597px;line-height:1.25;font-family:Gilroy-SemiBold;-inkscape-font-specification:Gilroy-SemiBold;font-variant-ligatures:normal;font-variant-caps:normal;font-variant-numeric:normal;font-feature-settings:normal;text-align:start;letter-spacing:0px;word-spacing:0px;writing-mode:lr-tb;text-anchor:start;fill:#df9d0b;fill-opacity:1;stroke:none;stroke-width:0.37291417"
         d="m 38.37039,227.04282 v 14.87439 h -2.44365 v -10.60332 l -4.52607,7.4797 h -0.29748 l -4.52607,-7.50095 v 10.62457 h -2.44365 v -14.87439 h 2.63489 l 4.48357,7.43719 4.50482,-7.43719 z" />
      <path
         inkscape:connector-curvature="0"
         id="path4625"
         style="font-style:normal;font-variant:normal;font-weight:normal;font-stretch:normal;font-size:21.24913597px;line-height:1.25;font-family:Gilroy-SemiBold;-inkscape-font-specification:Gilroy-SemiBold;font-variant-ligatures:normal;font-variant-caps:normal;font-variant-numeric:normal;font-feature-settings:normal;text-align:start;letter-spacing:0px;word-spacing:0px;writing-mode:lr-tb;text-anchor:start;fill:#df9d0b;fill-opacity:1;stroke:none;stroke-width:0.37291417"
         d="m 43.01433,237.58239 q 0.25499,1.2112 1.1687,1.86992 0.91371,0.63748 2.23116,0.63748 1.82742,0 2.74114,-1.31745 l 1.89117,1.10495 q -1.57244,2.31616 -4.65356,2.31616 -2.5924,0 -4.18608,-1.57244 -1.59369,-1.59368 -1.59369,-4.01608 0,-2.37991 1.57244,-3.97359 1.57244,-1.61493 4.03734,-1.61493 2.3374,0 3.82484,1.63618 1.50869,1.63618 1.50869,3.97359 0,0.36123 -0.085,0.95621 z m -0.0212,-1.86993 h 6.24724 q -0.23374,-1.29619 -1.0837,-1.95492 -0.82872,-0.65872 -1.95492,-0.65872 -1.27495,0 -2.12492,0.70122 -0.84996,0.70122 -1.0837,1.91242 z" />
      <path
         inkscape:connector-curvature="0"
         id="path4627"
         style="font-style:normal;font-variant:normal;font-weight:normal;font-stretch:normal;font-size:21.24913597px;line-height:1.25;font-family:Gilroy-SemiBold;-inkscape-font-specification:Gilroy-SemiBold;font-variant-ligatures:normal;font-variant-caps:normal;font-variant-numeric:normal;font-feature-settings:normal;text-align:start;letter-spacing:0px;word-spacing:0px;writing-mode:lr-tb;text-anchor:start;fill:#df9d0b;fill-opacity:1;stroke:none;stroke-width:0.37291417"
         d="m 65.177838,231.01641 q 1.806176,0 2.911132,1.1687 1.104955,1.1687 1.104955,3.14487 v 6.58723 h -2.294907 v -6.43849 q 0,-1.10495 -0.552478,-1.69993 -0.552477,-0.61622 -1.508688,-0.61622 -1.062457,0 -1.699932,0.70122 -0.61622,0.70122 -0.61622,2.10366 v 5.94976 h -2.29491 v -6.43849 q 0,-1.10495 -0.53123,-1.69993 -0.50998,-0.61622 -1.46619,-0.61622 -1.04121,0 -1.69993,0.72247 -0.65872,0.70122 -0.65872,2.08241 v 5.94976 h -2.29491 v -10.62457 h 2.29491 v 1.27495 q 1.01995,-1.55118 3.03862,-1.55118 2.03992,0 3.01738,1.67868 1.06246,-1.67868 3.251118,-1.67868 z" />
      <path
         inkscape:connector-curvature="0"
         id="path4629"
         style="font-style:normal;font-variant:normal;font-weight:normal;font-stretch:normal;font-size:21.24913597px;line-height:1.25;font-family:Gilroy-SemiBold;-inkscape-font-specification:Gilroy-SemiBold;font-variant-ligatures:normal;font-variant-caps:normal;font-variant-numeric:normal;font-feature-settings:normal;text-align:start;letter-spacing:0px;word-spacing:0px;writing-mode:lr-tb;text-anchor:start;fill:#df9d0b;fill-opacity:1;stroke:none;stroke-width:0.37291417"
         d="m 77.684278,231.01641 q 2.188661,0 3.739848,1.61493 1.551187,1.61493 1.551187,3.97359 0,2.3374 -1.551187,3.97359 -1.551187,1.61493 -3.739848,1.61493 -2.422401,0 -3.718599,-1.80618 v 1.52994 h -2.294906 v -14.87439 h 2.294906 v 5.75851 q 1.296198,-1.78492 3.718599,-1.78492 z m -2.762387,8.03217 q 0.956211,0.95621 2.401152,0.95621 1.444941,0 2.401152,-0.95621 0.956211,-0.97746 0.956211,-2.44365 0,-1.46619 -0.956211,-2.4224 -0.956211,-0.97746 -2.401152,-0.97746 -1.444941,0 -2.401152,0.97746 -0.956212,0.95621 -0.956212,2.4224 0,1.46619 0.956212,2.44365 z" />
      <path
         inkscape:connector-curvature="0"
         id="path4631"
         style="font-style:normal;font-variant:normal;font-weight:normal;font-stretch:normal;font-size:21.24913597px;line-height:1.25;font-family:Gilroy-SemiBold;-inkscape-font-specification:Gilroy-SemiBold;font-variant-ligatures:normal;font-variant-caps:normal;font-variant-numeric:normal;font-feature-settings:normal;text-align:start;letter-spacing:0px;word-spacing:0px;writing-mode:lr-tb;text-anchor:start;fill:#df9d0b;fill-opacity:1;stroke:none;stroke-width:0.37291417"
         d="m 86.882169,237.58239 q 0.25499,1.2112 1.168703,1.86992 0.913713,0.63748 2.231159,0.63748 1.827426,0 2.741139,-1.31745 l 1.891173,1.10495 q -1.572436,2.31616 -4.653561,2.31616 -2.592395,0 -4.18608,-1.57244 -1.593685,-1.59368 -1.593685,-4.01608 0,-2.37991 1.572436,-3.97359 1.572436,-1.61493 4.037336,-1.61493 2.337405,0 3.824844,1.63618 1.508689,1.63618 1.508689,3.97359 0,0.36123 -0.085,0.95621 z m -0.02125,-1.86993 h 6.247246 q -0.23374,-1.29619 -1.083706,-1.95492 -0.828716,-0.65872 -1.95492,-0.65872 -1.274948,0 -2.124914,0.70122 -0.849965,0.70122 -1.083706,1.91242 z" />
      <path
         inkscape:connector-curvature="0"
         id="path4633"
         style="font-style:normal;font-variant:normal;font-weight:normal;font-stretch:normal;font-size:21.24913597px;line-height:1.25;font-family:Gilroy-SemiBold;-inkscape-font-specification:Gilroy-SemiBold;font-variant-ligatures:normal;font-variant-caps:normal;font-variant-numeric:normal;font-feature-settings:normal;text-align:start;letter-spacing:0px;word-spacing:0px;writing-mode:lr-tb;text-anchor:start;fill:#df9d0b;fill-opacity:1;stroke:none;stroke-width:0.37291417"
         d="m 99.73856,233.07757 q 0.87121,-1.97617 3.27237,-1.97617 v 2.48615 q -1.31745,-0.085 -2.29491,0.63747 -0.97746,0.70123 -0.97746,2.33741 v 5.35478 h -2.294907 v -10.62457 h 2.294907 z" />
      <path
         inkscape:connector-curvature="0"
         id="path4635"
         style="font-style:normal;font-variant:normal;font-weight:normal;font-stretch:normal;font-size:21.24913597px;line-height:1.25;font-family:Gilroy-SemiBold;-inkscape-font-specification:Gilroy-SemiBold;font-variant-ligatures:normal;font-variant-caps:normal;font-variant-numeric:normal;font-feature-settings:normal;text-align:start;letter-spacing:0px;word-spacing:0px;writing-mode:lr-tb;text-anchor:start;fill:#df9d0b;fill-opacity:1;stroke:none;stroke-width:0.37291417"
         d="m 115.03362,242.19345 q -2.3374,0 -3.97359,-1.61493 -1.63618,-1.61494 -1.63618,-3.97359 0,-2.35866 1.63618,-3.97359 1.63619,-1.61493 3.97359,-1.61493 2.35866,0 3.97359,1.61493 1.63618,1.61493 1.63618,3.97359 0,2.35865 -1.63618,3.97359 -1.61493,1.61493 -3.97359,1.61493 z m -2.35865,-3.18737 q 0.95621,0.95621 2.35865,0.95621 1.40244,0 2.35866,-0.95621 0.95621,-0.95621 0.95621,-2.40115 0,-1.44494 -0.95621,-2.40115 -0.95622,-0.95622 -2.35866,-0.95622 -1.40244,0 -2.35865,0.95622 -0.95621,0.95621 -0.95621,2.40115 0,1.44494 0.95621,2.40115 z" />
      <path
         inkscape:connector-curvature="0"
         id="path4637"
         style="font-style:normal;font-variant:normal;font-weight:normal;font-stretch:normal;font-size:21.24913597px;line-height:1.25;font-family:Gilroy-SemiBold;-inkscape-font-specification:Gilroy-SemiBold;font-variant-ligatures:normal;font-variant-caps:normal;font-variant-numeric:normal;font-feature-settings:normal;text-align:start;letter-spacing:0px;word-spacing:0px;writing-mode:lr-tb;text-anchor:start;fill:#df9d0b;fill-opacity:1;stroke:none;stroke-width:0.37291417"
         d="m 127.91226,228.97649 q -2.5074,-0.23374 -2.5074,2.10366 v 0.21249 h 2.5074 v 2.20991 h -2.5074 v 8.41466 h -2.29491 v -8.41466 h -1.61493 v -2.20991 h 1.61493 v -0.21249 q 0,-2.18866 1.2112,-3.31486 1.23245,-1.14746 3.59111,-0.99871 z" />
      <path
         inkscape:connector-curvature="0"
         id="path4639"
         style="font-style:normal;font-variant:normal;font-weight:normal;font-stretch:normal;font-size:21.24913597px;line-height:1.25;font-family:Gilroy-SemiBold;-inkscape-font-specification:Gilroy-SemiBold;font-variant-ligatures:normal;font-variant-caps:normal;font-variant-numeric:normal;font-feature-settings:normal;text-align:start;letter-spacing:0px;word-spacing:0px;writing-mode:lr-tb;text-anchor:start;fill:#df9d0b;fill-opacity:1;stroke:none;stroke-width:0.37291417"
         d="m 140.17766,227.04282 q 2.10366,0 3.5061,1.40244 1.42369,1.40244 1.42369,3.48486 0,2.06116 -1.42369,3.48486 -1.40244,1.40244 -3.5061,1.40244 h -3.03863 v 5.09979 h -2.44365 v -14.87439 z m 0,7.47969 q 1.0837,0 1.78492,-0.72247 0.70122,-0.74372 0.70122,-1.86992 0,-1.12621 -0.70122,-1.84868 -0.70122,-0.74372 -1.78492,-0.74372 h -3.03863 v 5.18479 z" />
      <path
         inkscape:connector-curvature="0"
         id="path4641"
         style="font-style:normal;font-variant:normal;font-weight:normal;font-stretch:normal;font-size:21.24913597px;line-height:1.25;font-family:Gilroy-SemiBold;-inkscape-font-specification:Gilroy-SemiBold;font-variant-ligatures:normal;font-variant-caps:normal;font-variant-numeric:normal;font-feature-settings:normal;text-align:start;letter-spacing:0px;word-spacing:0px;writing-mode:lr-tb;text-anchor:start;fill:#df9d0b;fill-opacity:1;stroke:none;stroke-width:0.37291417"
         d="m 156.5654,227.04282 v 2.3374 h -4.18608 v 12.53699 h -2.44366 v -12.53699 h -4.20732 v -2.3374 z" />
      <path
         inkscape:connector-curvature="0"
         id="path4643"
         style="font-style:normal;font-variant:normal;font-weight:normal;font-stretch:normal;font-size:21.24913597px;line-height:1.25;font-family:Gilroy-SemiBold;-inkscape-font-specification:Gilroy-SemiBold;font-variant-ligatures:normal;font-variant-caps:normal;font-variant-numeric:normal;font-feature-settings:normal;text-align:start;letter-spacing:0px;word-spacing:0px;writing-mode:lr-tb;text-anchor:start;fill:#df9d0b;fill-opacity:1;stroke:none;stroke-width:0.37291417"
         d="m 158.59369,241.70472 q -0.46748,0.46748 -1.1262,0.46748 -0.65873,0 -1.12621,-0.46748 -0.46748,-0.46748 -0.46748,-1.1262 0,-0.65873 0.44623,-1.12621 0.46748,-0.46748 1.14746,-0.46748 0.65872,0 1.1262,0.46748 0.46748,0.46748 0.46748,1.12621 0,0.65872 -0.46748,1.1262 z" />
      <path
         inkscape:connector-curvature="0"
         id="path4645"
         style="font-style:normal;font-variant:normal;font-weight:normal;font-stretch:normal;font-size:21.24913597px;line-height:1.25;font-family:Gilroy-SemiBold;-inkscape-font-specification:Gilroy-SemiBold;font-variant-ligatures:normal;font-variant-caps:normal;font-variant-numeric:normal;font-feature-settings:normal;text-align:start;letter-spacing:0px;word-spacing:0px;writing-mode:lr-tb;text-anchor:start;fill:#df9d0b;fill-opacity:1;stroke:none;stroke-width:0.37291417"
         d="m 172.46638,227.04282 q 2.10367,0 3.50611,1.40244 1.42369,1.40244 1.42369,3.48486 0,2.06116 -1.42369,3.48486 -1.40244,1.40244 -3.50611,1.40244 h -3.03862 v 5.09979 h -2.44365 v -14.87439 z m 0,7.47969 q 1.08371,0 1.78493,-0.72247 0.70122,-0.74372 0.70122,-1.86992 0,-1.12621 -0.70122,-1.84868 -0.70122,-0.74372 -1.78493,-0.74372 h -3.03862 v 5.18479 z" />
      <path
         inkscape:connector-curvature="0"
         id="path4647"
         style="font-style:normal;font-variant:normal;font-weight:normal;font-stretch:normal;font-size:21.24913597px;line-height:1.25;font-family:Gilroy-SemiBold;-inkscape-font-specification:Gilroy-SemiBold;font-variant-ligatures:normal;font-variant-caps:normal;font-variant-numeric:normal;font-feature-settings:normal;text-align:start;letter-spacing:0px;word-spacing:0px;writing-mode:lr-tb;text-anchor:start;fill:#df9d0b;fill-opacity:1;stroke:none;stroke-width:0.37291417"
         d="m 186.53,231.29264 h 2.2949 v 10.62457 H 186.53 v -1.35994 q -1.04121,1.63618 -3.29362,1.63618 -1.82743,0 -2.95363,-1.1687 -1.1262,-1.1687 -1.1262,-3.20862 v -6.52349 h 2.2949 v 6.28975 q 0,1.18995 0.63748,1.82742 0.63747,0.63748 1.74243,0.63748 1.2112,0 1.95492,-0.74372 0.74372,-0.76497 0.74372,-2.31616 z" />
      <path
         inkscape:connector-curvature="0"
         id="path4649"
         style="font-style:normal;font-variant:normal;font-weight:normal;font-stretch:normal;font-size:21.24913597px;line-height:1.25;font-family:Gilroy-SemiBold;-inkscape-font-specification:Gilroy-SemiBold;font-variant-ligatures:normal;font-variant-caps:normal;font-variant-numeric:normal;font-feature-settings:normal;text-align:start;letter-spacing:0px;word-spacing:0px;writing-mode:lr-tb;text-anchor:start;fill:#df9d0b;fill-opacity:1;stroke:none;stroke-width:0.37291417"
         d="m 197.41618,233.50255 h -2.63489 v 5.0998 q 0,0.65872 0.29749,0.95621 0.29749,0.27624 0.87121,0.31873 0.59498,0.0213 1.46619,-0.0212 v 2.06116 q -2.63489,0.31874 -3.78234,-0.44623 -1.14746,-0.78622 -1.14746,-2.86863 v -5.0998 h -1.95492 v -2.20991 h 1.95492 v -2.2949 l 2.29491,-0.67998 v 2.97488 h 2.63489 z" />
      <path
         inkscape:connector-curvature="0"
         id="path4651"
         style="font-style:normal;font-variant:normal;font-weight:normal;font-stretch:normal;font-size:21.24913597px;line-height:1.25;font-family:Gilroy-SemiBold;-inkscape-font-specification:Gilroy-SemiBold;font-variant-ligatures:normal;font-variant-caps:normal;font-variant-numeric:normal;font-feature-settings:normal;text-align:start;letter-spacing:0px;word-spacing:0px;writing-mode:lr-tb;text-anchor:start;fill:#df9d0b;fill-opacity:1;stroke:none;stroke-width:0.37291417"
         d="m 201.91703,233.07757 q 0.87121,-1.97617 3.27236,-1.97617 v 2.48615 q -1.31744,-0.085 -2.2949,0.63747 -0.97746,0.70123 -0.97746,2.33741 v 5.35478 h -2.29491 v -10.62457 h 2.29491 z" />
      <path
         inkscape:connector-curvature="0"
         id="path4653"
         style="font-style:normal;font-variant:normal;font-weight:normal;font-stretch:normal;font-size:21.24913597px;line-height:1.25;font-family:Gilroy-SemiBold;-inkscape-font-specification:Gilroy-SemiBold;font-variant-ligatures:normal;font-variant-caps:normal;font-variant-numeric:normal;font-feature-settings:normal;text-align:start;letter-spacing:0px;word-spacing:0px;writing-mode:lr-tb;text-anchor:start;fill:#df9d0b;fill-opacity:1;stroke:none;stroke-width:0.37291417"
         d="m 214.80164,231.29264 h 2.29491 v 10.62457 h -2.29491 v -1.52994 q -1.2962,1.80618 -3.7186,1.80618 -2.18866,0 -3.73985,-1.61493 -1.55118,-1.63619 -1.55118,-3.97359 0,-2.35866 1.55118,-3.97359 1.55119,-1.61493 3.73985,-1.61493 2.4224,0 3.7186,1.78492 z m -5.75852,7.75594 q 0.95621,0.95621 2.40116,0.95621 1.44494,0 2.40115,-0.95621 0.95621,-0.97746 0.95621,-2.44365 0,-1.46619 -0.95621,-2.4224 -0.95621,-0.97746 -2.40115,-0.97746 -1.44495,0 -2.40116,0.97746 -0.95621,0.95621 -0.95621,2.4224 0,1.46619 0.95621,2.44365 z" />
      <path
         inkscape:connector-curvature="0"
         id="path4655"
         style="font-style:normal;font-variant:normal;font-weight:normal;font-stretch:normal;font-size:21.24913597px;line-height:1.25;font-family:Gilroy-SemiBold;-inkscape-font-specification:Gilroy-SemiBold;font-variant-ligatures:normal;font-variant-caps:normal;font-variant-numeric:normal;font-feature-settings:normal;text-align:start;letter-spacing:0px;word-spacing:0px;writing-mode:lr-tb;text-anchor:start;fill:#df9d0b;fill-opacity:1;stroke:none;stroke-width:0.37291417"
         d="m 230.7355,227.04282 q 2.10367,0 3.50611,1.40244 1.42369,1.40244 1.42369,3.48486 0,2.06116 -1.42369,3.48486 -1.40244,1.40244 -3.50611,1.40244 h -3.03863 v 5.09979 h -2.44365 v -14.87439 z m 0,7.47969 q 1.08371,0 1.78493,-0.72247 0.70122,-0.74372 0.70122,-1.86992 0,-1.12621 -0.70122,-1.84868 -0.70122,-0.74372 -1.78493,-0.74372 h -3.03863 v 5.18479 z" />
      <path
         inkscape:connector-curvature="0"
         id="path4657"
         style="font-style:normal;font-variant:normal;font-weight:normal;font-stretch:normal;font-size:21.24913597px;line-height:1.25;font-family:Gilroy-SemiBold;-inkscape-font-specification:Gilroy-SemiBold;font-variant-ligatures:normal;font-variant-caps:normal;font-variant-numeric:normal;font-feature-settings:normal;text-align:start;letter-spacing:0px;word-spacing:0px;writing-mode:lr-tb;text-anchor:start;fill:#df9d0b;fill-opacity:1;stroke:none;stroke-width:0.37291417"
         d="m 238.69728,237.58239 q 0.25499,1.2112 1.1687,1.86992 0.91371,0.63748 2.23116,0.63748 1.82743,0 2.74114,-1.31745 l 1.89117,1.10495 q -1.57243,2.31616 -4.65356,2.31616 -2.59239,0 -4.18608,-1.57244 -1.59368,-1.59368 -1.59368,-4.01608 0,-2.37991 1.57243,-3.97359 1.57244,-1.61493 4.03734,-1.61493 2.3374,0 3.82484,1.63618 1.50869,1.63618 1.50869,3.97359 0,0.36123 -0.085,0.95621 z m -0.0213,-1.86993 h 6.24724 q -0.23374,-1.29619 -1.0837,-1.95492 -0.82872,-0.65872 -1.95492,-0.65872 -1.27495,0 -2.12492,0.70122 -0.84996,0.70122 -1.0837,1.91242 z" />
      <path
         inkscape:connector-curvature="0"
         id="path4659"
         style="font-style:normal;font-variant:normal;font-weight:normal;font-stretch:normal;font-size:21.24913597px;line-height:1.25;font-family:Gilroy-SemiBold;-inkscape-font-specification:Gilroy-SemiBold;font-variant-ligatures:normal;font-variant-caps:normal;font-variant-numeric:normal;font-feature-settings:normal;text-align:start;letter-spacing:0px;word-spacing:0px;writing-mode:lr-tb;text-anchor:start;fill:#df9d0b;fill-opacity:1;stroke:none;stroke-width:0.37291417"
         d="m 251.55367,233.07757 q 0.87121,-1.97617 3.27237,-1.97617 v 2.48615 q -1.31745,-0.085 -2.29491,0.63747 -0.97746,0.70123 -0.97746,2.33741 v 5.35478 h -2.29491 v -10.62457 h 2.29491 z" />
      <path
         inkscape:connector-curvature="0"
         id="path4661"
         style="font-style:normal;font-variant:normal;font-weight:normal;font-stretch:normal;font-size:21.24913597px;line-height:1.25;font-family:Gilroy-SemiBold;-inkscape-font-specification:Gilroy-SemiBold;font-variant-ligatures:normal;font-variant-caps:normal;font-variant-numeric:normal;font-feature-settings:normal;text-align:start;letter-spacing:0px;word-spacing:0px;writing-mode:lr-tb;text-anchor:start;fill:#df9d0b;fill-opacity:1;stroke:none;stroke-width:0.37291417"
         d="m 264.43828,227.04282 h 2.29491 v 14.87439 h -2.29491 v -1.52994 q -1.2962,1.80618 -3.7186,1.80618 -2.18866,0 -3.73984,-1.61493 -1.55119,-1.63619 -1.55119,-3.97359 0,-2.35866 1.55119,-3.97359 1.55118,-1.61493 3.73984,-1.61493 2.4224,0 3.7186,1.78492 z m -5.75851,12.00576 q 0.95621,0.95621 2.40115,0.95621 1.44494,0 2.40115,-0.95621 0.95621,-0.97746 0.95621,-2.44365 0,-1.46619 -0.95621,-2.4224 -0.95621,-0.97746 -2.40115,-0.97746 -1.44494,0 -2.40115,0.97746 -0.95621,0.95621 -0.95621,2.4224 0,1.46619 0.95621,2.44365 z" />
      <path
         inkscape:connector-curvature="0"
         id="path4663"
         style="font-style:normal;font-variant:normal;font-weight:normal;font-stretch:normal;font-size:21.24913597px;line-height:1.25;font-family:Gilroy-SemiBold;-inkscape-font-specification:Gilroy-SemiBold;font-variant-ligatures:normal;font-variant-caps:normal;font-variant-numeric:normal;font-feature-settings:normal;text-align:start;letter-spacing:0px;word-spacing:0px;writing-mode:lr-tb;text-anchor:start;fill:#df9d0b;fill-opacity:1;stroke:none;stroke-width:0.37291417"
         d="m 277.84349,231.29264 h 2.29491 v 10.62457 h -2.29491 v -1.52994 q -1.29619,1.80618 -3.71859,1.80618 -2.18866,0 -3.73985,-1.61493 -1.55119,-1.63619 -1.55119,-3.97359 0,-2.35866 1.55119,-3.97359 1.55119,-1.61493 3.73985,-1.61493 2.4224,0 3.71859,1.78492 z m -5.75851,7.75594 q 0.95621,0.95621 2.40115,0.95621 1.44494,0 2.40115,-0.95621 0.95621,-0.97746 0.95621,-2.44365 0,-1.46619 -0.95621,-2.4224 -0.95621,-0.97746 -2.40115,-0.97746 -1.44494,0 -2.40115,0.97746 -0.95621,0.95621 -0.95621,2.4224 0,1.46619 0.95621,2.44365 z" />
      <path
         inkscape:connector-curvature="0"
         id="path4665"
         style="font-style:normal;font-variant:normal;font-weight:normal;font-stretch:normal;font-size:21.24913597px;line-height:1.25;font-family:Gilroy-SemiBold;-inkscape-font-specification:Gilroy-SemiBold;font-variant-ligatures:normal;font-variant-caps:normal;font-variant-numeric:normal;font-feature-settings:normal;text-align:start;letter-spacing:0px;word-spacing:0px;writing-mode:lr-tb;text-anchor:start;fill:#df9d0b;fill-opacity:1;stroke:none;stroke-width:0.37291417"
         d="m 288.42257,231.01641 q 1.82743,0 2.95363,1.1687 1.12621,1.1687 1.12621,3.20862 v 6.52348 h -2.29491 v -6.28974 q 0,-1.18995 -0.63747,-1.82743 -0.63748,-0.63747 -1.74243,-0.63747 -1.2112,0 -1.95492,0.76497 -0.74372,0.74372 -0.74372,2.2949 v 5.69477 h -2.29491 v -10.62457 h 2.29491 v 1.35995 q 1.0412,-1.63618 3.29361,-1.63618 z" />
      <path
         inkscape:connector-curvature="0"
         id="path4667"
         style="font-style:normal;font-variant:normal;font-weight:normal;font-stretch:normal;font-size:21.24913597px;line-height:1.25;font-family:Gilroy-SemiBold;-inkscape-font-specification:Gilroy-SemiBold;font-variant-ligatures:normal;font-variant-caps:normal;font-variant-numeric:normal;font-feature-settings:normal;text-align:start;letter-spacing:0px;word-spacing:0px;writing-mode:lr-tb;text-anchor:start;fill:#df9d0b;fill-opacity:1;stroke:none;stroke-width:0.37291417"
         d="m 303.36736,231.29264 h 2.29491 v 10.62457 h -2.29491 v -1.52994 q -1.2962,1.80618 -3.7186,1.80618 -2.18866,0 -3.73985,-1.61493 -1.55118,-1.63619 -1.55118,-3.97359 0,-2.35866 1.55118,-3.97359 1.55119,-1.61493 3.73985,-1.61493 2.4224,0 3.7186,1.78492 z m -5.75852,7.75594 q 0.95621,0.95621 2.40116,0.95621 1.44494,0 2.40115,-0.95621 0.95621,-0.97746 0.95621,-2.44365 0,-1.46619 -0.95621,-2.4224 -0.95621,-0.97746 -2.40115,-0.97746 -1.44495,0 -2.40116,0.97746 -0.95621,0.95621 -0.95621,2.4224 0,1.46619 0.95621,2.44365 z" />
      <path
         inkscape:connector-curvature="0"
         id="path4669"
         style="font-style:normal;font-variant:normal;font-weight:normal;font-stretch:normal;font-size:21.24913597px;line-height:1.25;font-family:Gilroy-SemiBold;-inkscape-font-specification:Gilroy-SemiBold;font-variant-ligatures:normal;font-variant-caps:normal;font-variant-numeric:normal;font-feature-settings:normal;text-align:start;letter-spacing:0px;word-spacing:0px;writing-mode:lr-tb;text-anchor:start;fill:#df9d0b;fill-opacity:1;stroke:none;stroke-width:0.37291417"
         d="m 318.76999,242.19345 q -2.14616,0 -3.65485,-0.97746 -1.48744,-0.97746 -2.08241,-2.67739 l 2.10366,-1.23245 q 0.89246,2.5074 3.69735,2.5074 1.38119,0 2.06117,-0.53123 0.70122,-0.55248 0.70122,-1.42369 0,-0.91372 -0.74372,-1.3812 -0.74372,-0.48873 -2.63489,-1.06245 -1.06246,-0.31874 -1.72118,-0.59498 -0.65873,-0.27624 -1.40245,-0.76497 -0.72247,-0.50998 -1.0837,-1.2537 -0.36124,-0.74372 -0.36124,-1.74243 0,-1.97617 1.40244,-3.12362 1.40245,-1.1687 3.37862,-1.1687 1.78492,0 3.12362,0.87121 1.3387,0.87122 2.06117,2.40115 l -2.06117,1.18996 q -0.93496,-2.08242 -3.12362,-2.08242 -1.06246,0 -1.69993,0.50998 -0.63748,0.48873 -0.63748,1.3387 0,0.82871 0.63748,1.31744 0.65872,0.46748 2.35865,0.99871 0.84997,0.27624 1.23245,0.42498 0.40373,0.1275 1.10496,0.42499 0.72247,0.29749 1.0837,0.59497 0.36124,0.29749 0.76497,0.74372 0.42498,0.44623 0.59498,1.01996 0.16999,0.57373 0.16999,1.2962 0,2.01867 -1.46619,3.20862 -1.44494,1.1687 -3.8036,1.1687 z" />
      <path
         inkscape:connector-curvature="0"
         id="path4671"
         style="font-style:normal;font-variant:normal;font-weight:normal;font-stretch:normal;font-size:21.24913597px;line-height:1.25;font-family:Gilroy-SemiBold;-inkscape-font-specification:Gilroy-SemiBold;font-variant-ligatures:normal;font-variant-caps:normal;font-variant-numeric:normal;font-feature-settings:normal;text-align:start;letter-spacing:0px;word-spacing:0px;writing-mode:lr-tb;text-anchor:start;fill:#df9d0b;fill-opacity:1;stroke:none;stroke-width:0.37291417"
         d="m 328.09308,237.58239 q 0.25499,1.2112 1.1687,1.86992 0.91371,0.63748 2.23116,0.63748 1.82742,0 2.74114,-1.31745 l 1.89117,1.10495 q -1.57244,2.31616 -4.65356,2.31616 -2.5924,0 -4.18608,-1.57244 -1.59369,-1.59368 -1.59369,-4.01608 0,-2.37991 1.57244,-3.97359 1.57244,-1.61493 4.03734,-1.61493 2.3374,0 3.82484,1.63618 1.50869,1.63618 1.50869,3.97359 0,0.36123 -0.085,0.95621 z m -0.0212,-1.86993 h 6.24724 q -0.23374,-1.29619 -1.0837,-1.95492 -0.82872,-0.65872 -1.95492,-0.65872 -1.27495,0 -2.12492,0.70122 -0.84996,0.70122 -1.0837,1.91242 z" />
      <path
         inkscape:connector-curvature="0"
         id="path4673"
         style="font-style:normal;font-variant:normal;font-weight:normal;font-stretch:normal;font-size:21.24913597px;line-height:1.25;font-family:Gilroy-SemiBold;-inkscape-font-specification:Gilroy-SemiBold;font-variant-ligatures:normal;font-variant-caps:normal;font-variant-numeric:normal;font-feature-settings:normal;text-align:start;letter-spacing:0px;word-spacing:0px;writing-mode:lr-tb;text-anchor:start;fill:#df9d0b;fill-opacity:1;stroke:none;stroke-width:0.37291417"
         d="m 344.24307,231.01641 q 1.82742,0 2.95363,1.1687 1.1262,1.1687 1.1262,3.20862 v 6.52348 h -2.2949 v -6.28974 q 0,-1.18995 -0.63748,-1.82743 -0.63747,-0.63747 -1.74243,-0.63747 -1.2112,0 -1.95492,0.76497 -0.74372,0.74372 -0.74372,2.2949 v 5.69477 h -2.29491 v -10.62457 h 2.29491 v 1.35995 q 1.04121,-1.63618 3.29362,-1.63618 z" />
      <path
         inkscape:connector-curvature="0"
         id="path4675"
         style="font-style:normal;font-variant:normal;font-weight:normal;font-stretch:normal;font-size:21.24913597px;line-height:1.25;font-family:Gilroy-SemiBold;-inkscape-font-specification:Gilroy-SemiBold;font-variant-ligatures:normal;font-variant-caps:normal;font-variant-numeric:normal;font-feature-settings:normal;text-align:start;letter-spacing:0px;word-spacing:0px;writing-mode:lr-tb;text-anchor:start;fill:#df9d0b;fill-opacity:1;stroke:none;stroke-width:0.37291417"
         d="m 356.70171,233.50255 h -2.6349 v 5.0998 q 0,0.65872 0.29749,0.95621 0.29749,0.27624 0.87122,0.31873 0.59497,0.0213 1.46619,-0.0212 v 2.06116 q -2.6349,0.31874 -3.78235,-0.44623 -1.14745,-0.78622 -1.14745,-2.86863 v -5.0998 h -1.95492 v -2.20991 h 1.95492 v -2.2949 l 2.2949,-0.67998 v 2.97488 h 2.6349 z" />
      <path
         inkscape:connector-curvature="0"
         id="path4677"
         style="font-style:normal;font-variant:normal;font-weight:normal;font-stretch:normal;font-size:21.24913597px;line-height:1.25;font-family:Gilroy-SemiBold;-inkscape-font-specification:Gilroy-SemiBold;font-variant-ligatures:normal;font-variant-caps:normal;font-variant-numeric:normal;font-feature-settings:normal;text-align:start;letter-spacing:0px;word-spacing:0px;writing-mode:lr-tb;text-anchor:start;fill:#df9d0b;fill-opacity:1;stroke:none;stroke-width:0.37291417"
         d="m 363.3829,242.19345 q -2.3374,0 -3.97359,-1.61493 -1.63618,-1.61494 -1.63618,-3.97359 0,-2.35866 1.63618,-3.97359 1.63619,-1.61493 3.97359,-1.61493 2.35866,0 3.97359,1.61493 1.63618,1.61493 1.63618,3.97359 0,2.35865 -1.63618,3.97359 -1.61493,1.61493 -3.97359,1.61493 z m -2.35865,-3.18737 q 0.95621,0.95621 2.35865,0.95621 1.40245,0 2.35866,-0.95621 0.95621,-0.95621 0.95621,-2.40115 0,-1.44494 -0.95621,-2.40115 -0.95621,-0.95622 -2.35866,-0.95622 -1.40244,0 -2.35865,0.95622 -0.95621,0.95621 -0.95621,2.40115 0,1.44494 0.95621,2.40115 z" />
      <path
         inkscape:connector-curvature="0"
         id="path4679"
         style="font-style:normal;font-variant:normal;font-weight:normal;font-stretch:normal;font-size:21.24913597px;line-height:1.25;font-family:Gilroy-SemiBold;-inkscape-font-specification:Gilroy-SemiBold;font-variant-ligatures:normal;font-variant-caps:normal;font-variant-numeric:normal;font-feature-settings:normal;text-align:start;letter-spacing:0px;word-spacing:0px;writing-mode:lr-tb;text-anchor:start;fill:#df9d0b;fill-opacity:1;stroke:none;stroke-width:0.37291417"
         d="m 372.92143,234.22502 q 0,0.53123 0.57373,0.84997 0.59497,0.29749 1.42369,0.53123 0.84996,0.21249 1.69993,0.50998 0.84997,0.29749 1.42369,1.01996 0.59498,0.70122 0.59498,1.78492 0,1.52994 -1.18995,2.40116 -1.16871,0.87121 -2.95363,0.87121 -1.57244,0 -2.69864,-0.65872 -1.12621,-0.65873 -1.63619,-1.82743 l 1.97617,-1.14745 q 0.55248,1.52994 2.35866,1.52994 1.80617,0 1.80617,-1.18996 0,-0.50997 -0.59497,-0.82871 -0.57373,-0.31874 -1.4237,-0.53123 -0.82871,-0.23374 -1.67868,-0.53123 -0.84996,-0.29749 -1.44494,-0.97746 -0.57372,-0.70122 -0.57372,-1.76368 0,-1.46619 1.10495,-2.35865 1.1262,-0.89246 2.78364,-0.89246 1.31744,0 2.3374,0.59497 1.04121,0.57373 1.59369,1.61494 l -1.93367,1.0837 q -0.55248,-1.2112 -1.99742,-1.2112 -0.65873,0 -1.10496,0.29749 -0.44623,0.27624 -0.44623,0.82871 z" />
      <path
         inkscape:connector-curvature="0"
         id="path4681"
         style="font-style:normal;font-variant:normal;font-weight:normal;font-stretch:normal;font-size:21.24913597px;line-height:1.25;font-family:Gilroy-SemiBold;-inkscape-font-specification:Gilroy-SemiBold;font-variant-ligatures:normal;font-variant-caps:normal;font-variant-numeric:normal;font-feature-settings:normal;text-align:start;letter-spacing:0px;word-spacing:0px;writing-mode:lr-tb;text-anchor:start;fill:#df9d0b;fill-opacity:1;stroke:none;stroke-width:0.37291417"
         d="m 388.77892,231.29264 h 2.29491 v 10.62457 h -2.29491 v -1.52994 q -1.2962,1.80618 -3.7186,1.80618 -2.18866,0 -3.73985,-1.61493 -1.55118,-1.63619 -1.55118,-3.97359 0,-2.35866 1.55118,-3.97359 1.55119,-1.61493 3.73985,-1.61493 2.4224,0 3.7186,1.78492 z m -5.75852,7.75594 q 0.95621,0.95621 2.40116,0.95621 1.44494,0 2.40115,-0.95621 0.95621,-0.97746 0.95621,-2.44365 0,-1.46619 -0.95621,-2.4224 -0.95621,-0.97746 -2.40115,-0.97746 -1.44495,0 -2.40116,0.97746 -0.95621,0.95621 -0.95621,2.4224 0,1.46619 0.95621,2.44365 z" />
    </g>
  </g>
</svg>
